<?xml version="1.0" encoding="UTF-8"?>
<svg id="Camada_1" data-name="Camada 1" xmlns="http://www.w3.org/2000/svg" xmlns:xlink="http://www.w3.org/1999/xlink" viewBox="0 0 671.43 209.89">
  <defs>
    <style>
      .cls-1 {
        fill: url(#Gradiente_sem_nome_384);
      }

      .cls-1, .cls-2, .cls-3, .cls-4, .cls-5, .cls-6 {
        stroke-width: 0px;
      }

      .cls-2 {
        fill: #f4cc05;
      }

      .cls-3 {
        fill: url(#Gradiente_sem_nome_91);
      }

      .cls-4 {
        fill: url(#Gradiente_sem_nome_384-2);
      }

      .cls-5 {
        fill: url(#Gradiente_sem_nome_4);
      }

      .cls-6 {
        fill: #1d1d1b;
      }
    </style>
    <linearGradient id="Gradiente_sem_nome_384" data-name="Gradiente sem nome 384" x1="48.44" y1="150.73" x2="212.69" y2="150.73" gradientUnits="userSpaceOnUse">
      <stop offset=".18" stop-color="#323230"/>
      <stop offset=".5" stop-color="#4f4f4c"/>
      <stop offset=".52" stop-color="#4a4a47"/>
      <stop offset=".6" stop-color="#363633"/>
      <stop offset=".69" stop-color="#272725"/>
      <stop offset=".81" stop-color="#1f1f1d"/>
      <stop offset="1" stop-color="#1d1d1b"/>
    </linearGradient>
    <linearGradient id="Gradiente_sem_nome_91" data-name="Gradiente sem nome 91" x1="53.63" y1="124.75" x2="189.53" y2="-11.15" gradientUnits="userSpaceOnUse">
      <stop offset=".18" stop-color="#ffd500"/>
      <stop offset=".45" stop-color="#f5e42e"/>
      <stop offset=".5" stop-color="#f4e838"/>
      <stop offset=".55" stop-color="#f0d628"/>
      <stop offset=".63" stop-color="#edc216"/>
      <stop offset=".72" stop-color="#eab309"/>
      <stop offset=".82" stop-color="#e9ab02"/>
      <stop offset="1" stop-color="#e9a900"/>
    </linearGradient>
    <linearGradient id="Gradiente_sem_nome_4" data-name="Gradiente sem nome 4" x1="3.48" y1="124.6" x2="48.52" y2="124.6" gradientUnits="userSpaceOnUse">
      <stop offset="0" stop-color="#e9a900"/>
      <stop offset=".34" stop-color="#f4e838"/>
      <stop offset=".38" stop-color="#f6e42d"/>
      <stop offset=".49" stop-color="#fadd19"/>
      <stop offset=".61" stop-color="#fcd80a"/>
      <stop offset=".75" stop-color="#fed502"/>
      <stop offset="1" stop-color="#ffd500"/>
    </linearGradient>
    <linearGradient id="Gradiente_sem_nome_384-2" data-name="Gradiente sem nome 384" x1="3655.6" y1="33.49" x2="3699.57" y2="33.49" gradientTransform="translate(3893.42 -133.4) rotate(176.39) scale(1 -.79)" xlink:href="#Gradiente_sem_nome_384"/>
  </defs>
  <g>
    <path class="cls-6" d="m295.56,90.39v25.91h-20.44v-26.22l-27.57-46.05h21.58l17.14,28.7,17.14-28.7h19.82l-27.67,46.36Z"/>
    <path class="cls-6" d="m376.86,100.51v15.8h-58.02V44.03h56.68v15.8h-36.45v12.18h32.11v15.28h-32.11v13.22h37.79Z"/>
    <path class="cls-6" d="m380.51,44.03h20.44v56.06h34.48v16.21h-54.93V44.03Z"/>
    <path class="cls-6" d="m434.25,44.03h20.44v56.06h34.48v16.21h-54.93V44.03Z"/>
    <path class="cls-6" d="m478.5,80.17c0-21.68,17.04-37.58,40.16-37.58s40.16,15.9,40.16,37.58-17.04,37.58-40.16,37.58-40.16-15.9-40.16-37.58Zm59.68,0c0-12.49-8.57-20.65-19.51-20.65s-19.51,8.16-19.51,20.65,8.57,20.65,19.51,20.65,19.51-8.16,19.51-20.65Z"/>
    <path class="cls-6" d="m666.58,44.03l-23.44,72.27h-21.89l-13.83-43.98-14.46,43.98h-21.89l-23.44-72.27h21.06l14.56,46.15,15.28-46.15h18.79l14.56,46.56,15.18-46.56h19.51Z"/>
    <path class="cls-2" d="m475.29,196.68l6.71-15.07c6.4,4.23,15.49,7.12,23.85,7.12s11.77-2.37,11.77-5.88c0-11.46-41.09-3.1-41.09-29.94,0-12.91,10.53-23.44,32.01-23.44,9.4,0,19.1,2.17,26.22,6.3l-6.3,15.18c-6.92-3.72-13.73-5.57-20.03-5.57-8.57,0-11.67,2.89-11.67,6.5,0,11.05,40.99,2.79,40.99,29.43,0,12.6-10.53,23.33-32,23.33-11.87,0-23.64-3.2-30.46-7.95Z"/>
    <path class="cls-2" d="m597.46,187.39v15.8h-58.02v-72.27h56.68v15.8h-36.44v12.18h32.11v15.28h-32.11v13.22h37.79Z"/>
    <path class="cls-2" d="m595.75,167.04c0-21.99,16.83-37.58,39.75-37.58,13.32,0,24.05,4.85,31.08,13.63l-13.01,11.77c-4.54-5.47-10.12-8.47-17.04-8.47-11.87,0-20.13,8.26-20.13,20.65s8.26,20.65,20.13,20.65c6.92,0,12.49-2.99,17.04-8.47l13.01,11.77c-7.02,8.78-17.76,13.63-31.08,13.63-22.92,0-39.75-15.59-39.75-37.58Z"/>
  </g>
  <g>
    <path class="cls-1" d="m147.41,97.5v-.02c-11.92.92-24.95,2.83-38.7,6.21l.03.04c-13.44,3.35-26.61,7.9-39.36,13.65-7.17,3.23-14.14,6.89-20.94,10.84,7.38-2.88,14.87-5.36,22.43-7.45,13.44-3.72,27.13-6.2,40.89-7.45v36.82h29.23v-37.64c14,.49,27.95,2.25,41.68,5.27-10.63,24.79-28.6,45.61-56.56,60.62-22.65-12.16-38.75-28.13-49.7-46.94-3.82,1.01-7.61,2.12-11.38,3.34-3.86,1.24-7.68,2.6-11.46,4.05,15.41,28.92,39.58,50.85,72.54,65.78,21.82-9.88,39.78-22.84,53.91-38.85,16.3-18.49,26.76-40.28,32.66-63.97-7.72-1.62-15.49-2.85-23.28-3.67-13.99-1.48-28.04-1.69-41.99-.63Z"/>
    <path class="cls-3" d="m205.37,75.04c3.71,1.24,7.39,2.58,11.04,4,2.78-18.79,3.28-39.39,1.5-61.82-3.86,0-34.45-12.65-91.79-12.65s-87.93,12.65-91.79,12.65c-1.41,17.74-1.39,34.35.05,49.82,1.57,16.78,4.93,33.44,10.8,49.26,6.86-3.98,13.89-7.6,21.07-10.83,5.94-2.68,11.98-5.11,18.1-7.27,5.98-2.12,12.04-3.98,18.16-5.59l.02.04c10.87-2.82,22.86-5.18,35.67-6.53,17.54-1.79,35.32-1.6,53,.65,7.76.99,15.47,2.37,23.1,4.14-7.36-2.95-14.83-5.55-22.38-7.72-10.81-3.1-21.78-5.4-32.83-6.9l17.48-31.75h-31.88l-17.46,35.16h-.53l-17.46-35.16h-33.6l17.97,32.17c-11.17,1.66-22.25,4.14-33.14,7.43-3-15.23-4.05-31.46-3.61-48.38,22.61-5.49,46-7.65,69.23-7.65s46.62,2.16,69.23,7.65c.33,12.31-.14,24.26-1.58,35.72,3.9,1.09,7.77,2.28,11.6,3.57Z"/>
    <path class="cls-5" d="m33.95,96.84s1.94,9.2,6.8,22.58c0,0-23.77,11.3-24.94,19.71-1.62,11.6,32.72,8.12,32.72,8.12,0,0-37.9,12.94-43.73-2.32-8.73-22.84,29.15-48.08,29.15-48.08Z"/>
    <path class="cls-4" d="m215.99,102.6s-1.48,7.36-5.67,18.2c0,0,24.63,3.1,27.27,15.46,2.53,11.82-33.64,6.93-33.64,6.93,0,0,42.18,11.17,43.53-4.58,1.91-22.23-31.49-36-31.49-36Z"/>
  </g>
</svg>