<?xml version="1.0" encoding="UTF-8"?>
<svg id="Camada_1" data-name="Camada 1" xmlns="http://www.w3.org/2000/svg" xmlns:xlink="http://www.w3.org/1999/xlink" viewBox="0 0 839.76 147.05">
  <defs>
    <style>
      .cls-1 {
        fill: url(#Gradiente_sem_nome_384);
      }

      .cls-1, .cls-2, .cls-3, .cls-4, .cls-5, .cls-6 {
        stroke-width: 0px;
      }

      .cls-2 {
        fill: #f4cc05;
      }

      .cls-3 {
        fill: url(#Gradiente_sem_nome_91);
      }

      .cls-4 {
        fill: url(#Gradiente_sem_nome_384-2);
      }

      .cls-5 {
        fill: url(#Gradiente_sem_nome_4);
      }

      .cls-6 {
        fill: #1d1d1b;
      }
    </style>
    <linearGradient id="Gradiente_sem_nome_384" data-name="Gradiente sem nome 384" x1="36.63" y1="105.51" x2="149.61" y2="105.51" gradientUnits="userSpaceOnUse">
      <stop offset=".18" stop-color="#323230"/>
      <stop offset=".5" stop-color="#4f4f4c"/>
      <stop offset=".52" stop-color="#4a4a47"/>
      <stop offset=".6" stop-color="#363633"/>
      <stop offset=".69" stop-color="#272725"/>
      <stop offset=".81" stop-color="#1f1f1d"/>
      <stop offset="1" stop-color="#1d1d1b"/>
    </linearGradient>
    <linearGradient id="Gradiente_sem_nome_91" data-name="Gradiente sem nome 91" x1="40.2" y1="87.64" x2="133.68" y2="-5.85" gradientUnits="userSpaceOnUse">
      <stop offset=".18" stop-color="#ffd500"/>
      <stop offset=".45" stop-color="#f5e42e"/>
      <stop offset=".5" stop-color="#f4e838"/>
      <stop offset=".55" stop-color="#f0d628"/>
      <stop offset=".63" stop-color="#edc216"/>
      <stop offset=".72" stop-color="#eab309"/>
      <stop offset=".82" stop-color="#e9ab02"/>
      <stop offset="1" stop-color="#e9a900"/>
    </linearGradient>
    <linearGradient id="Gradiente_sem_nome_4" data-name="Gradiente sem nome 4" x1="5.7" y1="87.54" x2="36.68" y2="87.54" gradientUnits="userSpaceOnUse">
      <stop offset="0" stop-color="#e9a900"/>
      <stop offset=".34" stop-color="#f4e838"/>
      <stop offset=".38" stop-color="#f6e42d"/>
      <stop offset=".49" stop-color="#fadd19"/>
      <stop offset=".61" stop-color="#fcd80a"/>
      <stop offset=".75" stop-color="#fed502"/>
      <stop offset="1" stop-color="#ffd500"/>
    </linearGradient>
    <linearGradient id="Gradiente_sem_nome_384-2" data-name="Gradiente sem nome 384" x1="2135.39" y1="50.21" x2="2165.63" y2="50.21" gradientTransform="translate(2301.69 -87.41) rotate(176.39) scale(1 -.79)" xlink:href="#Gradiente_sem_nome_384"/>
  </defs>
  <g>
    <path class="cls-6" d="m223.52,84.83v28.02h-22.11v-28.36l-29.81-49.79h23.33l18.53,31.04,18.53-31.04h21.43l-29.92,50.13Z"/>
    <path class="cls-6" d="m311.43,95.77v17.08h-62.75V34.7h61.29v17.08h-39.41v13.17h34.72v16.53h-34.72v14.29h40.86Z"/>
    <path class="cls-6" d="m315.38,34.7h22.11v60.62h37.29v17.53h-59.4V34.7Z"/>
    <path class="cls-6" d="m373.48,34.7h22.11v60.62h37.29v17.53h-59.4V34.7Z"/>
    <path class="cls-6" d="m421.34,73.78c0-23.44,18.42-40.64,43.43-40.64s43.43,17.19,43.43,40.64-18.42,40.64-43.43,40.64-43.43-17.19-43.43-40.64Zm64.53,0c0-13.51-9.27-22.33-21.1-22.33s-21.1,8.82-21.1,22.33,9.27,22.33,21.1,22.33,21.1-8.82,21.1-22.33Z"/>
    <path class="cls-6" d="m624.73,34.7l-25.34,78.15h-23.67l-14.96-47.56-15.63,47.56h-23.67l-25.34-78.15h22.78l15.74,49.91,16.52-49.91h20.32l15.74,50.35,16.41-50.35h21.1Z"/>
    <path class="cls-2" d="m628.85,105.82l7.26-16.3c6.92,4.58,16.75,7.7,25.79,7.7s12.73-2.57,12.73-6.36c0-12.39-44.44-3.35-44.44-32.38,0-13.96,11.39-25.34,34.61-25.34,10.16,0,20.65,2.34,28.36,6.81l-6.81,16.41c-7.48-4.02-14.85-6.03-21.66-6.03-9.27,0-12.62,3.13-12.62,7.03,0,11.95,44.32,3.01,44.32,31.82,0,13.62-11.39,25.23-34.61,25.23-12.84,0-25.57-3.46-32.94-8.6Z"/>
    <path class="cls-2" d="m760.96,95.77v17.08h-62.74V34.7h61.29v17.08h-39.41v13.17h34.72v16.53h-34.72v14.29h40.86Z"/>
    <path class="cls-2" d="m759.11,73.78c0-23.78,18.2-40.64,42.98-40.64,14.4,0,26.01,5.25,33.61,14.74l-14.07,12.73c-4.91-5.92-10.94-9.16-18.42-9.16-12.84,0-21.77,8.93-21.77,22.33s8.93,22.33,21.77,22.33c7.48,0,13.51-3.24,18.42-9.16l14.07,12.73c-7.59,9.49-19.2,14.74-33.61,14.74-24.79,0-42.98-16.86-42.98-40.64Z"/>
  </g>
  <g>
    <path class="cls-1" d="m104.71,68.89v-.02c-8.2.63-17.17,1.94-26.62,4.27l.02.03c-9.24,2.3-18.31,5.44-27.07,9.39-4.93,2.22-9.72,4.74-14.4,7.46,5.08-1.98,10.23-3.69,15.43-5.13,9.25-2.56,18.66-4.26,28.13-5.12v25.33h20.11v-25.89c9.63.34,19.22,1.55,28.67,3.63-7.31,17.05-19.67,31.38-38.91,41.7-15.58-8.36-26.66-19.35-34.19-32.29-2.63.69-5.24,1.46-7.83,2.3-2.65.86-5.28,1.79-7.88,2.79,10.6,19.89,27.23,34.98,49.9,45.25,15.01-6.8,27.37-15.71,37.08-26.72,11.22-12.72,18.41-27.71,22.47-44-5.31-1.12-10.66-1.96-16.02-2.53-9.62-1.02-19.29-1.16-28.89-.44Z"/>
    <path class="cls-3" d="m144.58,53.44c2.55.86,5.08,1.77,7.59,2.75,1.91-12.93,2.26-27.1,1.03-42.52-2.65,0-23.7-8.7-63.14-8.7S29.57,13.67,26.92,13.67c-.97,12.21-.96,23.63.04,34.27,1.08,11.54,3.39,23,7.43,33.88,4.72-2.74,9.56-5.23,14.49-7.45,4.09-1.85,8.24-3.51,12.45-5,4.11-1.46,8.28-2.74,12.49-3.85v.02c7.49-1.94,15.74-3.56,24.55-4.49,12.07-1.23,24.3-1.1,36.46.45,5.34.68,10.64,1.63,15.89,2.85-5.06-2.03-10.2-3.82-15.39-5.31-7.43-2.14-14.98-3.72-22.59-4.75l12.02-21.84h-21.93l-12.01,24.18h-.36l-12.01-24.18h-23.11l12.36,22.13c-7.69,1.14-15.31,2.85-22.8,5.11-2.06-10.48-2.79-21.64-2.48-33.28,15.55-3.77,31.64-5.26,47.63-5.26s32.07,1.49,47.62,5.26c.23,8.47-.1,16.69-1.09,24.57,2.68.75,5.34,1.57,7.98,2.45Z"/>
    <path class="cls-5" d="m26.66,68.44s1.34,6.33,4.68,15.53c0,0-16.35,7.77-17.16,13.56-1.11,7.98,22.51,5.58,22.51,5.58,0,0-26.07,8.9-30.08-1.6-6-15.71,20.06-33.08,20.06-33.08Z"/>
    <path class="cls-4" d="m151.89,72.41s-1.02,5.06-3.9,12.52c0,0,16.94,2.13,18.76,10.63,1.74,8.13-23.14,4.77-23.14,4.77,0,0,29.01,7.68,29.94-3.15,1.31-15.29-21.66-24.76-21.66-24.76Z"/>
  </g>
</svg>