<?xml version="1.0" encoding="UTF-8"?>
<svg id="Camada_1" data-name="Camada 1" xmlns="http://www.w3.org/2000/svg" xmlns:xlink="http://www.w3.org/1999/xlink" viewBox="0 0 570 399.29">
  <defs>
    <style>
      .cls-1 {
        fill: url(#Gradiente_sem_nome_384);
      }

      .cls-1, .cls-2, .cls-3, .cls-4, .cls-5, .cls-6 {
        stroke-width: 0px;
      }

      .cls-2 {
        fill: #f4cc05;
      }

      .cls-3 {
        fill: url(#Gradiente_sem_nome_91);
      }

      .cls-4 {
        fill: url(#Gradiente_sem_nome_384-2);
      }

      .cls-5 {
        fill: url(#Gradiente_sem_nome_4);
      }

      .cls-6 {
        fill: #1d1d1b;
      }
    </style>
    <linearGradient id="Gradiente_sem_nome_384" data-name="Gradiente sem nome 384" x1="168.81" y1="222.95" x2="412.26" y2="222.95" gradientUnits="userSpaceOnUse">
      <stop offset=".18" stop-color="#323230"/>
      <stop offset=".5" stop-color="#4f4f4c"/>
      <stop offset=".52" stop-color="#4a4a47"/>
      <stop offset=".6" stop-color="#363633"/>
      <stop offset=".69" stop-color="#272725"/>
      <stop offset=".81" stop-color="#1f1f1d"/>
      <stop offset="1" stop-color="#1d1d1b"/>
    </linearGradient>
    <linearGradient id="Gradiente_sem_nome_91" data-name="Gradiente sem nome 91" x1="176.49" y1="184.44" x2="377.94" y2="-17.01" gradientUnits="userSpaceOnUse">
      <stop offset=".18" stop-color="#ffd500"/>
      <stop offset=".45" stop-color="#f5e42e"/>
      <stop offset=".5" stop-color="#f4e838"/>
      <stop offset=".55" stop-color="#f0d628"/>
      <stop offset=".63" stop-color="#edc216"/>
      <stop offset=".72" stop-color="#eab309"/>
      <stop offset=".82" stop-color="#e9ab02"/>
      <stop offset="1" stop-color="#e9a900"/>
    </linearGradient>
    <linearGradient id="Gradiente_sem_nome_4" data-name="Gradiente sem nome 4" x1="102.16" y1="184.22" x2="168.92" y2="184.22" gradientUnits="userSpaceOnUse">
      <stop offset="0" stop-color="#e9a900"/>
      <stop offset=".34" stop-color="#f4e838"/>
      <stop offset=".38" stop-color="#f6e42d"/>
      <stop offset=".49" stop-color="#fadd19"/>
      <stop offset=".61" stop-color="#fcd80a"/>
      <stop offset=".75" stop-color="#fed502"/>
      <stop offset="1" stop-color="#ffd500"/>
    </linearGradient>
    <linearGradient id="Gradiente_sem_nome_384-2" data-name="Gradiente sem nome 384" x1="5026.06" y1="42.24" x2="5091.23" y2="42.24" gradientTransform="translate(5476.72 -167.64) rotate(176.39) scale(1 -.79)" xlink:href="#Gradiente_sem_nome_384"/>
  </defs>
  <g>
    <path class="cls-6" d="m48.9,368.67v23.72h-18.71v-24l-25.23-42.15h19.75l15.69,26.27,15.69-26.27h18.14l-25.33,42.43Z"/>
    <path class="cls-6" d="m123.32,377.93v14.46h-53.11v-66.15h51.88v14.46h-33.36v11.15h29.39v13.99h-29.39v12.1h34.59Z"/>
    <path class="cls-6" d="m126.66,326.23h18.71v51.32h31.57v14.84h-50.28v-66.15Z"/>
    <path class="cls-6" d="m175.84,326.23h18.71v51.32h31.57v14.84h-50.28v-66.15Z"/>
    <path class="cls-6" d="m216.36,359.31c0-19.84,15.59-34.4,36.76-34.4s36.76,14.55,36.76,34.4-15.59,34.4-36.76,34.4-36.76-14.55-36.76-34.4Zm54.63,0c0-11.43-7.84-18.9-17.86-18.9s-17.86,7.47-17.86,18.9,7.84,18.9,17.86,18.9,17.86-7.47,17.86-18.9Z"/>
    <path class="cls-6" d="m388.51,326.23l-21.45,66.15h-20.04l-12.66-40.26-13.23,40.26h-20.04l-21.45-66.15h19.28l13.33,42.25,13.99-42.25h17.2l13.33,42.62,13.89-42.62h17.86Z"/>
    <path class="cls-2" d="m392,386.43l6.14-13.8c5.86,3.87,14.18,6.52,21.83,6.52s10.77-2.17,10.77-5.39c0-10.49-37.61-2.84-37.61-27.41,0-11.81,9.64-21.45,29.3-21.45,8.6,0,17.48,1.98,24,5.76l-5.76,13.89c-6.33-3.4-12.57-5.1-18.33-5.1-7.84,0-10.68,2.65-10.68,5.95,0,10.11,37.52,2.55,37.52,26.93,0,11.53-9.64,21.36-29.3,21.36-10.87,0-21.64-2.93-27.88-7.28Z"/>
    <path class="cls-2" d="m503.83,377.93v14.46h-53.11v-66.15h51.88v14.46h-33.36v11.15h29.39v13.99h-29.39v12.1h34.59Z"/>
    <path class="cls-2" d="m502.27,359.31c0-20.13,15.41-34.4,36.39-34.4,12.19,0,22.02,4.44,28.45,12.47l-11.91,10.77c-4.16-5.01-9.26-7.75-15.59-7.75-10.87,0-18.43,7.56-18.43,18.9s7.56,18.9,18.43,18.9c6.33,0,11.43-2.74,15.59-7.75l11.91,10.77c-6.43,8.03-16.25,12.47-28.45,12.47-20.98,0-36.39-14.27-36.39-34.4Z"/>
  </g>
  <g>
    <path class="cls-1" d="m315.51,144.05l.02-.03c-17.69,1.37-37.01,4.19-57.39,9.21l.04.07c-19.92,4.96-39.45,11.71-58.34,20.23-10.62,4.79-20.95,10.22-31.04,16.06,10.94-4.26,22.04-7.95,33.25-11.05,19.93-5.51,40.21-9.18,60.61-11.04v54.58h43.33v-55.79c20.75.73,41.43,3.34,61.78,7.81-15.75,36.74-42.39,67.61-83.83,89.85-33.58-18.02-57.44-41.7-73.67-69.58-5.67,1.5-11.29,3.15-16.86,4.95-5.72,1.84-11.38,3.85-16.99,6.01,22.84,42.87,58.67,75.37,107.52,97.5,32.34-14.65,58.97-33.85,79.91-57.59,24.17-27.4,39.67-59.71,48.42-94.82-11.44-2.41-22.96-4.22-34.51-5.45-20.74-2.2-41.57-2.5-62.24-.94Z"/>
    <path class="cls-3" d="m401.42,110.75c5.5,1.84,10.95,3.82,16.36,5.93,4.12-27.85,4.86-58.39,2.22-91.63-5.72,0-51.07-18.75-136.06-18.75s-130.34,18.75-136.06,18.75c-2.09,26.3-2.07,50.92.08,73.85,2.32,24.87,7.31,49.56,16.01,73.01,10.17-5.9,20.59-11.26,31.23-16.06,8.81-3.98,17.76-7.57,26.84-10.78,8.87-3.14,17.85-5.9,26.92-8.29l.03.05c16.11-4.19,33.89-7.68,52.88-9.68,26-2.66,52.36-2.37,78.56.97,11.51,1.47,22.94,3.52,34.24,6.14-10.91-4.38-21.98-8.23-33.17-11.44-16.02-4.6-32.29-8.01-48.67-10.23l25.91-47.07h-47.25l-25.88,52.11h-.78l-25.88-52.11h-49.8l26.64,47.69c-16.56,2.46-32.98,6.13-49.12,11.02-4.45-22.58-6.01-46.63-5.34-71.71,33.52-8.13,68.18-11.34,102.62-11.34s69.1,3.21,102.62,11.34c.49,18.25-.21,35.96-2.34,52.95,5.77,1.62,11.51,3.38,17.2,5.29Z"/>
    <path class="cls-5" d="m147.32,143.07s2.88,13.64,10.08,33.47c0,0-35.23,16.75-36.97,29.22-2.4,17.2,48.5,12.03,48.5,12.03,0,0-56.18,19.18-64.82-3.44-12.94-33.86,43.22-71.27,43.22-71.27Z"/>
    <path class="cls-4" d="m417.16,151.61s-2.2,10.91-8.4,26.97c0,0,36.5,4.6,40.42,22.91,3.75,17.52-49.87,10.27-49.87,10.27,0,0,62.52,16.55,64.52-6.79,2.83-32.95-46.67-53.36-46.67-53.36Z"/>
  </g>
</svg>